<svg width="128" height="128" viewBox="0 0 128 128" fill="none" xmlns="http://www.w3.org/2000/svg">
<rect width="128" height="128" fill="#1D1816"/>
<path d="M60.752 15.408C60.304 16.752 59.856 18.768 59.52 20.336C57.616 29.744 55.712 47.44 55.712 62.784C55.712 77.344 58.848 90.784 62.32 101.312L54.144 103.776C50.896 93.808 47.872 77.904 47.872 63.68C47.872 48.336 50.112 30.192 51.12 20.56C51.344 18.544 51.456 16.528 51.456 15.072L60.752 15.408ZM42.72 29.184C62.432 29.184 81.92 27.616 97.376 24.144L97.488 32.432C81.36 35.232 59.296 36.912 42.608 36.912C37.792 36.912 29.056 36.464 24.464 36.24L24.24 27.84C28.16 28.512 37.904 29.184 42.72 29.184ZM89.424 42.4C88.752 43.856 87.744 46.88 87.072 48.672C80.464 69.392 69.264 84.96 57.504 94.032C50.336 99.52 41.376 103.664 33.424 103.664C26.032 103.664 20.208 99.184 20.208 89.664C20.208 74.32 34.432 58.528 51.008 52.144C58.512 49.232 67.584 47.552 74.864 47.552C96.032 47.552 109.36 59.872 109.36 75.552C109.36 91.568 98.72 105.568 72.736 109.712L67.92 102.208C88.08 99.968 100.624 89.552 100.624 75.104C100.624 64.24 91.44 54.72 74.752 54.72C65.344 54.72 57.056 57.408 51.344 59.984C38.688 65.584 28.608 77.904 28.608 88.208C28.608 92.8 30.848 95.04 34.992 95.04C40.592 95.04 47.872 91.904 55.04 85.632C65.008 76.896 74.192 64.8 79.344 46.656C79.792 44.976 80.352 41.952 80.464 40.16L89.424 42.4Z" fill="#22B357"/>
</svg>
